<mxfile host="app.diagrams.net" modified="2024-02-27T06:24:43.388Z" agent="Mozilla/5.0 (Windows NT 10.0; Win64; x64) AppleWebKit/537.36 (KHTML, like Gecko) Chrome/122.0.0.0 Safari/537.36" etag="NMbtr0-QyNKwgEnxLMpq" version="23.1.7" type="device">
  <diagram name="Page-1" id="V89iQVu1GfNOq4l1LWKW">
    <mxGraphModel dx="1035" dy="642" grid="1" gridSize="10" guides="1" tooltips="1" connect="1" arrows="1" fold="1" page="1" pageScale="1" pageWidth="850" pageHeight="1100" math="0" shadow="0">
      <root>
        <mxCell id="0" />
        <mxCell id="1" parent="0" />
        <mxCell id="qDlPhBRoSfTYgMn2V-P4-1" value="id" style="ellipse;whiteSpace=wrap;html=1;" parent="1" vertex="1">
          <mxGeometry x="10" y="70" width="80" height="45" as="geometry" />
        </mxCell>
        <mxCell id="Vy25yQKs0Dko6nrtGjQA-3" style="rounded=0;orthogonalLoop=1;jettySize=auto;html=1;endArrow=none;endFill=0;" parent="1" source="qDlPhBRoSfTYgMn2V-P4-2" target="Vy25yQKs0Dko6nrtGjQA-2" edge="1">
          <mxGeometry relative="1" as="geometry" />
        </mxCell>
        <mxCell id="qDlPhBRoSfTYgMn2V-P4-2" value="users" style="rounded=0;whiteSpace=wrap;html=1;" parent="1" vertex="1">
          <mxGeometry x="20" y="180" width="120" height="60" as="geometry" />
        </mxCell>
        <mxCell id="qDlPhBRoSfTYgMn2V-P4-7" value="name" style="ellipse;whiteSpace=wrap;html=1;" parent="1" vertex="1">
          <mxGeometry x="105" y="67.5" width="75" height="50" as="geometry" />
        </mxCell>
        <mxCell id="qDlPhBRoSfTYgMn2V-P4-8" value="password" style="ellipse;whiteSpace=wrap;html=1;" parent="1" vertex="1">
          <mxGeometry x="182.5" y="155" width="80" height="50" as="geometry" />
        </mxCell>
        <mxCell id="qDlPhBRoSfTYgMn2V-P4-9" value="money" style="ellipse;whiteSpace=wrap;html=1;" parent="1" vertex="1">
          <mxGeometry x="10" y="270" width="80" height="50" as="geometry" />
        </mxCell>
        <mxCell id="qDlPhBRoSfTYgMn2V-P4-17" value="id" style="ellipse;whiteSpace=wrap;html=1;" parent="1" vertex="1">
          <mxGeometry x="753.3399999999999" y="340" width="83.33" height="50" as="geometry" />
        </mxCell>
        <mxCell id="qDlPhBRoSfTYgMn2V-P4-23" value="products" style="rounded=0;whiteSpace=wrap;html=1;" parent="1" vertex="1">
          <mxGeometry x="590" y="350" width="120" height="60" as="geometry" />
        </mxCell>
        <mxCell id="qDlPhBRoSfTYgMn2V-P4-25" value="description" style="ellipse;whiteSpace=wrap;html=1;" parent="1" vertex="1">
          <mxGeometry x="630" y="480" width="80" height="50" as="geometry" />
        </mxCell>
        <mxCell id="qDlPhBRoSfTYgMn2V-P4-26" value="price" style="ellipse;whiteSpace=wrap;html=1;" parent="1" vertex="1">
          <mxGeometry x="533.33" y="480" width="83.33" height="50" as="geometry" />
        </mxCell>
        <mxCell id="qDlPhBRoSfTYgMn2V-P4-44" value="seller_id" style="ellipse;whiteSpace=wrap;html=1;" parent="1" vertex="1">
          <mxGeometry x="753.3399999999999" y="400" width="83.33" height="50" as="geometry" />
        </mxCell>
        <mxCell id="D3oBofmpskHSFgTfiEmH-3" style="rounded=0;orthogonalLoop=1;jettySize=auto;html=1;endArrow=none;endFill=0;" parent="1" source="qDlPhBRoSfTYgMn2V-P4-46" target="D3oBofmpskHSFgTfiEmH-1" edge="1">
          <mxGeometry relative="1" as="geometry" />
        </mxCell>
        <mxCell id="qDlPhBRoSfTYgMn2V-P4-46" value="transactions" style="rounded=0;whiteSpace=wrap;html=1;" parent="1" vertex="1">
          <mxGeometry x="345.84" y="720" width="125" height="60" as="geometry" />
        </mxCell>
        <mxCell id="qDlPhBRoSfTYgMn2V-P4-48" value="time" style="ellipse;whiteSpace=wrap;html=1;" parent="1" vertex="1">
          <mxGeometry x="50" y="750" width="83.34" height="50" as="geometry" />
        </mxCell>
        <mxCell id="eRM8tmIsxN5XU8mgJoRw-110" style="rounded=0;orthogonalLoop=1;jettySize=auto;html=1;entryX=1;entryY=0.75;entryDx=0;entryDy=0;endArrow=none;endFill=0;" parent="1" source="qDlPhBRoSfTYgMn2V-P4-49" target="qDlPhBRoSfTYgMn2V-P4-46" edge="1">
          <mxGeometry relative="1" as="geometry" />
        </mxCell>
        <mxCell id="qDlPhBRoSfTYgMn2V-P4-49" value="price_total" style="ellipse;whiteSpace=wrap;html=1;" parent="1" vertex="1">
          <mxGeometry x="691.67" y="880" width="83.33" height="50" as="geometry" />
        </mxCell>
        <mxCell id="qDlPhBRoSfTYgMn2V-P4-50" value="product_price" style="ellipse;whiteSpace=wrap;html=1;" parent="1" vertex="1">
          <mxGeometry x="533.33" y="980" width="83.33" height="50" as="geometry" />
        </mxCell>
        <mxCell id="qDlPhBRoSfTYgMn2V-P4-51" value="&lt;font style=&quot;font-size: 11px;&quot;&gt;product_quantity&lt;/font&gt;" style="ellipse;whiteSpace=wrap;html=1;" parent="1" vertex="1">
          <mxGeometry x="624.5799999999999" y="940" width="90.84" height="50" as="geometry" />
        </mxCell>
        <mxCell id="qDlPhBRoSfTYgMn2V-P4-52" value="id" style="ellipse;whiteSpace=wrap;html=1;" parent="1" vertex="1">
          <mxGeometry x="56.66999999999997" y="690" width="83.33" height="50" as="geometry" />
        </mxCell>
        <mxCell id="qDlPhBRoSfTYgMn2V-P4-53" value="seller_name" style="ellipse;whiteSpace=wrap;html=1;" parent="1" vertex="1">
          <mxGeometry x="79.99999999999997" y="890" width="83.33" height="50" as="geometry" />
        </mxCell>
        <mxCell id="qDlPhBRoSfTYgMn2V-P4-54" value="seller_id" style="ellipse;whiteSpace=wrap;html=1;" parent="1" vertex="1">
          <mxGeometry x="56.66" y="820" width="83.33" height="50" as="geometry" />
        </mxCell>
        <mxCell id="qDlPhBRoSfTYgMn2V-P4-55" value="buyer_id" style="ellipse;whiteSpace=wrap;html=1;" parent="1" vertex="1">
          <mxGeometry x="133.34000000000003" y="950" width="83.33" height="50" as="geometry" />
        </mxCell>
        <mxCell id="qDlPhBRoSfTYgMn2V-P4-56" value="product_title" style="ellipse;whiteSpace=wrap;html=1;" parent="1" vertex="1">
          <mxGeometry x="440" y="1000" width="83.33" height="50" as="geometry" />
        </mxCell>
        <mxCell id="eRM8tmIsxN5XU8mgJoRw-112" style="rounded=0;orthogonalLoop=1;jettySize=auto;html=1;entryX=1;entryY=0.25;entryDx=0;entryDy=0;endArrow=none;endFill=0;" parent="1" source="qDlPhBRoSfTYgMn2V-P4-57" target="qDlPhBRoSfTYgMn2V-P4-46" edge="1">
          <mxGeometry relative="1" as="geometry">
            <Array as="points" />
          </mxGeometry>
        </mxCell>
        <mxCell id="qDlPhBRoSfTYgMn2V-P4-57" value="&lt;font style=&quot;font-size: 10px;&quot;&gt;buyer_money_before&lt;/font&gt;" style="ellipse;whiteSpace=wrap;html=1;" parent="1" vertex="1">
          <mxGeometry x="683.33" y="740" width="108.33" height="50" as="geometry" />
        </mxCell>
        <mxCell id="eRM8tmIsxN5XU8mgJoRw-111" style="rounded=0;orthogonalLoop=1;jettySize=auto;html=1;entryX=1;entryY=0.5;entryDx=0;entryDy=0;endArrow=none;endFill=0;" parent="1" source="qDlPhBRoSfTYgMn2V-P4-59" target="qDlPhBRoSfTYgMn2V-P4-46" edge="1">
          <mxGeometry relative="1" as="geometry" />
        </mxCell>
        <mxCell id="qDlPhBRoSfTYgMn2V-P4-59" value="&lt;font style=&quot;font-size: 10px;&quot;&gt;buyer_money_after&lt;/font&gt;" style="ellipse;whiteSpace=wrap;html=1;" parent="1" vertex="1">
          <mxGeometry x="691.67" y="810" width="99.99" height="50" as="geometry" />
        </mxCell>
        <mxCell id="qDlPhBRoSfTYgMn2V-P4-60" value="buyer_name" style="ellipse;whiteSpace=wrap;html=1;" parent="1" vertex="1">
          <mxGeometry x="240" y="980" width="83.33" height="50" as="geometry" />
        </mxCell>
        <mxCell id="qDlPhBRoSfTYgMn2V-P4-75" value="Membeli" style="rhombus;whiteSpace=wrap;html=1;" parent="1" vertex="1">
          <mxGeometry x="570" y="125" width="95" height="80" as="geometry" />
        </mxCell>
        <mxCell id="D3oBofmpskHSFgTfiEmH-2" style="edgeStyle=orthogonalEdgeStyle;rounded=0;orthogonalLoop=1;jettySize=auto;html=1;endArrow=none;endFill=0;" parent="1" source="qDlPhBRoSfTYgMn2V-P4-80" target="qDlPhBRoSfTYgMn2V-P4-46" edge="1">
          <mxGeometry relative="1" as="geometry" />
        </mxCell>
        <mxCell id="qDlPhBRoSfTYgMn2V-P4-80" value="Mencatat" style="rhombus;whiteSpace=wrap;html=1;" parent="1" vertex="1">
          <mxGeometry x="368.34" y="445" width="80" height="80" as="geometry" />
        </mxCell>
        <mxCell id="qDlPhBRoSfTYgMn2V-P4-83" value="id_user" style="ellipse;whiteSpace=wrap;html=1;" parent="1" vertex="1">
          <mxGeometry x="300" y="220" width="80" height="50" as="geometry" />
        </mxCell>
        <mxCell id="qDlPhBRoSfTYgMn2V-P4-85" value="user_name" style="ellipse;whiteSpace=wrap;html=1;" parent="1" vertex="1">
          <mxGeometry x="360" y="290" width="85" height="50" as="geometry" />
        </mxCell>
        <mxCell id="qDlPhBRoSfTYgMn2V-P4-86" value="user_money" style="ellipse;whiteSpace=wrap;html=1;" parent="1" vertex="1">
          <mxGeometry x="445" y="220" width="85" height="50" as="geometry" />
        </mxCell>
        <mxCell id="ULf1GeIIWyAPM2VFQZKR-3" value="admin" style="ellipse;whiteSpace=wrap;html=1;" parent="1" vertex="1">
          <mxGeometry x="320" y="20" width="100" height="50" as="geometry" />
        </mxCell>
        <mxCell id="ULf1GeIIWyAPM2VFQZKR-5" value="user" style="ellipse;whiteSpace=wrap;html=1;" parent="1" vertex="1">
          <mxGeometry x="360" y="140" width="100" height="50" as="geometry" />
        </mxCell>
        <mxCell id="ULf1GeIIWyAPM2VFQZKR-21" value="Membuat" style="rhombus;whiteSpace=wrap;html=1;" parent="1" vertex="1">
          <mxGeometry x="630" y="5" width="95" height="80" as="geometry" />
        </mxCell>
        <mxCell id="ULf1GeIIWyAPM2VFQZKR-25" value="" style="ellipse;whiteSpace=wrap;html=1;" parent="1" vertex="1">
          <mxGeometry x="200" y="74.57" width="107.5" height="65.43" as="geometry" />
        </mxCell>
        <mxCell id="ULf1GeIIWyAPM2VFQZKR-27" value="role" style="ellipse;whiteSpace=wrap;html=1;" parent="1" vertex="1">
          <mxGeometry x="208.33" y="79.78" width="91.67" height="55" as="geometry" />
        </mxCell>
        <mxCell id="kuRha2_io-UW0Y_83bCq-6" value="" style="endArrow=none;html=1;rounded=0;exitX=1;exitY=0;exitDx=0;exitDy=0;entryX=0.099;entryY=0.786;entryDx=0;entryDy=0;entryPerimeter=0;" parent="1" source="qDlPhBRoSfTYgMn2V-P4-2" target="ULf1GeIIWyAPM2VFQZKR-25" edge="1">
          <mxGeometry width="50" height="50" relative="1" as="geometry">
            <mxPoint x="150" y="180" as="sourcePoint" />
            <mxPoint x="200" y="130" as="targetPoint" />
          </mxGeometry>
        </mxCell>
        <mxCell id="kuRha2_io-UW0Y_83bCq-7" value="" style="endArrow=none;html=1;rounded=0;entryX=0.5;entryY=1;entryDx=0;entryDy=0;exitX=0.313;exitY=0.023;exitDx=0;exitDy=0;exitPerimeter=0;" parent="1" source="qDlPhBRoSfTYgMn2V-P4-2" target="qDlPhBRoSfTYgMn2V-P4-1" edge="1">
          <mxGeometry width="50" height="50" relative="1" as="geometry">
            <mxPoint x="80" y="240" as="sourcePoint" />
            <mxPoint x="130" y="190" as="targetPoint" />
          </mxGeometry>
        </mxCell>
        <mxCell id="kuRha2_io-UW0Y_83bCq-8" value="" style="endArrow=none;html=1;rounded=0;exitX=0.713;exitY=0.01;exitDx=0;exitDy=0;exitPerimeter=0;" parent="1" source="qDlPhBRoSfTYgMn2V-P4-2" target="qDlPhBRoSfTYgMn2V-P4-7" edge="1">
          <mxGeometry width="50" height="50" relative="1" as="geometry">
            <mxPoint x="120" y="270" as="sourcePoint" />
            <mxPoint x="170" y="220" as="targetPoint" />
          </mxGeometry>
        </mxCell>
        <mxCell id="kuRha2_io-UW0Y_83bCq-9" value="" style="endArrow=none;html=1;rounded=0;entryX=0.019;entryY=0.656;entryDx=0;entryDy=0;exitX=1;exitY=0.5;exitDx=0;exitDy=0;entryPerimeter=0;" parent="1" source="qDlPhBRoSfTYgMn2V-P4-2" target="qDlPhBRoSfTYgMn2V-P4-8" edge="1">
          <mxGeometry width="50" height="50" relative="1" as="geometry">
            <mxPoint x="130" y="290" as="sourcePoint" />
            <mxPoint x="180" y="240" as="targetPoint" />
          </mxGeometry>
        </mxCell>
        <mxCell id="kuRha2_io-UW0Y_83bCq-10" value="" style="endArrow=none;html=1;rounded=0;exitX=0.5;exitY=0;exitDx=0;exitDy=0;entryX=0.5;entryY=1;entryDx=0;entryDy=0;" parent="1" source="qDlPhBRoSfTYgMn2V-P4-9" target="qDlPhBRoSfTYgMn2V-P4-2" edge="1">
          <mxGeometry width="50" height="50" relative="1" as="geometry">
            <mxPoint x="190" y="290" as="sourcePoint" />
            <mxPoint x="240" y="240" as="targetPoint" />
          </mxGeometry>
        </mxCell>
        <mxCell id="kuRha2_io-UW0Y_83bCq-12" value="" style="endArrow=none;html=1;rounded=0;entryX=0;entryY=0.5;entryDx=0;entryDy=0;exitX=0.5;exitY=0;exitDx=0;exitDy=0;" parent="1" source="ULf1GeIIWyAPM2VFQZKR-27" target="ULf1GeIIWyAPM2VFQZKR-3" edge="1">
          <mxGeometry width="50" height="50" relative="1" as="geometry">
            <mxPoint x="290" y="70" as="sourcePoint" />
            <mxPoint x="340" y="20" as="targetPoint" />
          </mxGeometry>
        </mxCell>
        <mxCell id="kuRha2_io-UW0Y_83bCq-15" value="" style="endArrow=none;html=1;rounded=0;entryX=0;entryY=0.5;entryDx=0;entryDy=0;" parent="1" source="ULf1GeIIWyAPM2VFQZKR-3" target="ULf1GeIIWyAPM2VFQZKR-21" edge="1">
          <mxGeometry width="50" height="50" relative="1" as="geometry">
            <mxPoint x="390" y="100" as="sourcePoint" />
            <mxPoint x="440" y="50" as="targetPoint" />
          </mxGeometry>
        </mxCell>
        <mxCell id="kuRha2_io-UW0Y_83bCq-17" value="" style="endArrow=none;html=1;rounded=0;entryX=0;entryY=0.5;entryDx=0;entryDy=0;exitX=1;exitY=0.5;exitDx=0;exitDy=0;" parent="1" source="ULf1GeIIWyAPM2VFQZKR-5" target="qDlPhBRoSfTYgMn2V-P4-75" edge="1">
          <mxGeometry width="50" height="50" relative="1" as="geometry">
            <mxPoint x="390" y="230" as="sourcePoint" />
            <mxPoint x="440" y="180" as="targetPoint" />
          </mxGeometry>
        </mxCell>
        <mxCell id="kuRha2_io-UW0Y_83bCq-18" value="" style="endArrow=none;html=1;rounded=0;entryX=0;entryY=1;entryDx=0;entryDy=0;exitX=0.5;exitY=0;exitDx=0;exitDy=0;" parent="1" source="qDlPhBRoSfTYgMn2V-P4-83" target="ULf1GeIIWyAPM2VFQZKR-5" edge="1">
          <mxGeometry width="50" height="50" relative="1" as="geometry">
            <mxPoint x="360" y="340" as="sourcePoint" />
            <mxPoint x="410" y="290" as="targetPoint" />
          </mxGeometry>
        </mxCell>
        <mxCell id="kuRha2_io-UW0Y_83bCq-19" value="" style="endArrow=none;html=1;rounded=0;" parent="1" source="qDlPhBRoSfTYgMn2V-P4-85" target="ULf1GeIIWyAPM2VFQZKR-5" edge="1">
          <mxGeometry width="50" height="50" relative="1" as="geometry">
            <mxPoint x="390" y="250" as="sourcePoint" />
            <mxPoint x="440" y="200" as="targetPoint" />
          </mxGeometry>
        </mxCell>
        <mxCell id="kuRha2_io-UW0Y_83bCq-20" value="" style="endArrow=none;html=1;rounded=0;entryX=1;entryY=1;entryDx=0;entryDy=0;exitX=0;exitY=0;exitDx=0;exitDy=0;" parent="1" source="qDlPhBRoSfTYgMn2V-P4-86" target="ULf1GeIIWyAPM2VFQZKR-5" edge="1">
          <mxGeometry width="50" height="50" relative="1" as="geometry">
            <mxPoint x="460" y="230" as="sourcePoint" />
            <mxPoint x="510" y="180" as="targetPoint" />
          </mxGeometry>
        </mxCell>
        <mxCell id="kuRha2_io-UW0Y_83bCq-21" value="" style="endArrow=none;html=1;rounded=0;entryX=0;entryY=0.5;entryDx=0;entryDy=0;" parent="1" source="ULf1GeIIWyAPM2VFQZKR-27" target="ULf1GeIIWyAPM2VFQZKR-5" edge="1">
          <mxGeometry width="50" height="50" relative="1" as="geometry">
            <mxPoint x="300" y="190" as="sourcePoint" />
            <mxPoint x="350" y="140" as="targetPoint" />
          </mxGeometry>
        </mxCell>
        <mxCell id="kuRha2_io-UW0Y_83bCq-22" value="" style="endArrow=none;html=1;rounded=0;exitX=0.5;exitY=0.938;exitDx=0;exitDy=0;exitPerimeter=0;entryX=0.75;entryY=0;entryDx=0;entryDy=0;" parent="1" source="ULf1GeIIWyAPM2VFQZKR-21" target="qDlPhBRoSfTYgMn2V-P4-23" edge="1">
          <mxGeometry width="50" height="50" relative="1" as="geometry">
            <mxPoint x="657.5" y="135" as="sourcePoint" />
            <mxPoint x="640" y="240" as="targetPoint" />
          </mxGeometry>
        </mxCell>
        <mxCell id="kuRha2_io-UW0Y_83bCq-25" value="" style="endArrow=none;html=1;rounded=0;exitX=0.45;exitY=1;exitDx=0;exitDy=0;exitPerimeter=0;" parent="1" source="qDlPhBRoSfTYgMn2V-P4-23" target="qDlPhBRoSfTYgMn2V-P4-25" edge="1">
          <mxGeometry width="50" height="50" relative="1" as="geometry">
            <mxPoint x="630" y="590" as="sourcePoint" />
            <mxPoint x="680" y="540" as="targetPoint" />
            <Array as="points" />
          </mxGeometry>
        </mxCell>
        <mxCell id="kuRha2_io-UW0Y_83bCq-26" value="" style="endArrow=none;html=1;rounded=0;entryX=0;entryY=0.5;entryDx=0;entryDy=0;exitX=1;exitY=0.5;exitDx=0;exitDy=0;" parent="1" source="qDlPhBRoSfTYgMn2V-P4-23" target="qDlPhBRoSfTYgMn2V-P4-44" edge="1">
          <mxGeometry width="50" height="50" relative="1" as="geometry">
            <mxPoint x="620" y="630" as="sourcePoint" />
            <mxPoint x="670" y="580" as="targetPoint" />
          </mxGeometry>
        </mxCell>
        <mxCell id="kuRha2_io-UW0Y_83bCq-46" value="" style="endArrow=none;html=1;rounded=0;entryX=0.5;entryY=1;entryDx=0;entryDy=0;exitX=0.25;exitY=0;exitDx=0;exitDy=0;" parent="1" source="qDlPhBRoSfTYgMn2V-P4-23" target="qDlPhBRoSfTYgMn2V-P4-75" edge="1">
          <mxGeometry width="50" height="50" relative="1" as="geometry">
            <mxPoint x="580" y="290" as="sourcePoint" />
            <mxPoint x="630" y="240" as="targetPoint" />
          </mxGeometry>
        </mxCell>
        <mxCell id="kuRha2_io-UW0Y_83bCq-48" value="" style="endArrow=none;html=1;rounded=0;exitX=0.125;exitY=1.067;exitDx=0;exitDy=0;entryX=0.5;entryY=0;entryDx=0;entryDy=0;exitPerimeter=0;" parent="1" source="qDlPhBRoSfTYgMn2V-P4-23" target="qDlPhBRoSfTYgMn2V-P4-26" edge="1">
          <mxGeometry width="50" height="50" relative="1" as="geometry">
            <mxPoint x="710" y="360" as="sourcePoint" />
            <mxPoint x="750" y="290" as="targetPoint" />
          </mxGeometry>
        </mxCell>
        <mxCell id="kuRha2_io-UW0Y_83bCq-49" value="" style="endArrow=none;html=1;rounded=0;entryX=1.017;entryY=0.15;entryDx=0;entryDy=0;exitX=0;exitY=0.5;exitDx=0;exitDy=0;entryPerimeter=0;" parent="1" source="qDlPhBRoSfTYgMn2V-P4-17" target="qDlPhBRoSfTYgMn2V-P4-23" edge="1">
          <mxGeometry width="50" height="50" relative="1" as="geometry">
            <mxPoint x="730" y="310" as="sourcePoint" />
            <mxPoint x="670" y="460" as="targetPoint" />
          </mxGeometry>
        </mxCell>
        <mxCell id="kuRha2_io-UW0Y_83bCq-50" value="" style="endArrow=none;html=1;rounded=0;entryX=0;entryY=0.5;entryDx=0;entryDy=0;exitX=0.718;exitY=0.214;exitDx=0;exitDy=0;exitPerimeter=0;" parent="1" source="qDlPhBRoSfTYgMn2V-P4-80" target="qDlPhBRoSfTYgMn2V-P4-23" edge="1">
          <mxGeometry width="50" height="50" relative="1" as="geometry">
            <mxPoint x="470" y="480" as="sourcePoint" />
            <mxPoint x="520" y="430" as="targetPoint" />
          </mxGeometry>
        </mxCell>
        <mxCell id="kuRha2_io-UW0Y_83bCq-51" value="Melihat" style="rhombus;whiteSpace=wrap;html=1;rotation=15;" parent="1" vertex="1">
          <mxGeometry x="150" y="470" width="80" height="80" as="geometry" />
        </mxCell>
        <mxCell id="kuRha2_io-UW0Y_83bCq-59" value="" style="endArrow=none;html=1;rounded=0;entryX=0;entryY=0;entryDx=0;entryDy=0;exitX=1;exitY=0.5;exitDx=0;exitDy=0;" parent="1" source="qDlPhBRoSfTYgMn2V-P4-52" target="qDlPhBRoSfTYgMn2V-P4-46" edge="1">
          <mxGeometry width="50" height="50" relative="1" as="geometry">
            <mxPoint x="230" y="780" as="sourcePoint" />
            <mxPoint x="280" y="730" as="targetPoint" />
          </mxGeometry>
        </mxCell>
        <mxCell id="kuRha2_io-UW0Y_83bCq-60" value="" style="endArrow=none;html=1;rounded=0;entryX=0;entryY=0.25;entryDx=0;entryDy=0;exitX=1;exitY=0.5;exitDx=0;exitDy=0;" parent="1" source="qDlPhBRoSfTYgMn2V-P4-48" target="qDlPhBRoSfTYgMn2V-P4-46" edge="1">
          <mxGeometry width="50" height="50" relative="1" as="geometry">
            <mxPoint x="240" y="820" as="sourcePoint" />
            <mxPoint x="290" y="770" as="targetPoint" />
          </mxGeometry>
        </mxCell>
        <mxCell id="kuRha2_io-UW0Y_83bCq-61" value="" style="endArrow=none;html=1;rounded=0;exitX=0.955;exitY=0.219;exitDx=0;exitDy=0;exitPerimeter=0;entryX=0;entryY=0.5;entryDx=0;entryDy=0;" parent="1" source="qDlPhBRoSfTYgMn2V-P4-54" target="qDlPhBRoSfTYgMn2V-P4-46" edge="1">
          <mxGeometry width="50" height="50" relative="1" as="geometry">
            <mxPoint x="360" y="810" as="sourcePoint" />
            <mxPoint x="410" y="760" as="targetPoint" />
            <Array as="points" />
          </mxGeometry>
        </mxCell>
        <mxCell id="kuRha2_io-UW0Y_83bCq-62" value="" style="endArrow=none;html=1;rounded=0;exitX=1;exitY=0;exitDx=0;exitDy=0;entryX=0;entryY=0.75;entryDx=0;entryDy=0;" parent="1" source="qDlPhBRoSfTYgMn2V-P4-53" target="qDlPhBRoSfTYgMn2V-P4-46" edge="1">
          <mxGeometry width="50" height="50" relative="1" as="geometry">
            <mxPoint x="320" y="830" as="sourcePoint" />
            <mxPoint x="370" y="750" as="targetPoint" />
          </mxGeometry>
        </mxCell>
        <mxCell id="kuRha2_io-UW0Y_83bCq-63" value="" style="endArrow=none;html=1;rounded=0;exitX=0.632;exitY=-0.016;exitDx=0;exitDy=0;exitPerimeter=0;entryX=0;entryY=1;entryDx=0;entryDy=0;" parent="1" source="qDlPhBRoSfTYgMn2V-P4-55" target="qDlPhBRoSfTYgMn2V-P4-46" edge="1">
          <mxGeometry width="50" height="50" relative="1" as="geometry">
            <mxPoint x="320" y="960" as="sourcePoint" />
            <mxPoint x="370" y="750" as="targetPoint" />
            <Array as="points" />
          </mxGeometry>
        </mxCell>
        <mxCell id="kuRha2_io-UW0Y_83bCq-64" value="" style="endArrow=none;html=1;rounded=0;exitX=0.5;exitY=0;exitDx=0;exitDy=0;" parent="1" source="qDlPhBRoSfTYgMn2V-P4-60" edge="1">
          <mxGeometry width="50" height="50" relative="1" as="geometry">
            <mxPoint x="300" y="920" as="sourcePoint" />
            <mxPoint x="380" y="780" as="targetPoint" />
          </mxGeometry>
        </mxCell>
        <mxCell id="kuRha2_io-UW0Y_83bCq-65" value="" style="endArrow=none;html=1;rounded=0;exitX=0.5;exitY=0;exitDx=0;exitDy=0;" parent="1" source="qDlPhBRoSfTYgMn2V-P4-56" target="qDlPhBRoSfTYgMn2V-P4-46" edge="1">
          <mxGeometry width="50" height="50" relative="1" as="geometry">
            <mxPoint x="430" y="1010" as="sourcePoint" />
            <mxPoint x="480" y="960" as="targetPoint" />
          </mxGeometry>
        </mxCell>
        <mxCell id="kuRha2_io-UW0Y_83bCq-66" value="" style="endArrow=none;html=1;rounded=0;entryX=0.647;entryY=1;entryDx=0;entryDy=0;exitX=0.324;exitY=-0.017;exitDx=0;exitDy=0;exitPerimeter=0;entryPerimeter=0;" parent="1" source="qDlPhBRoSfTYgMn2V-P4-50" target="qDlPhBRoSfTYgMn2V-P4-46" edge="1">
          <mxGeometry width="50" height="50" relative="1" as="geometry">
            <mxPoint x="510" y="930" as="sourcePoint" />
            <mxPoint x="560" y="880" as="targetPoint" />
          </mxGeometry>
        </mxCell>
        <mxCell id="kuRha2_io-UW0Y_83bCq-67" value="" style="endArrow=none;html=1;rounded=0;exitX=0;exitY=0;exitDx=0;exitDy=0;entryX=1;entryY=1;entryDx=0;entryDy=0;" parent="1" source="qDlPhBRoSfTYgMn2V-P4-51" target="qDlPhBRoSfTYgMn2V-P4-46" edge="1">
          <mxGeometry width="50" height="50" relative="1" as="geometry">
            <mxPoint x="420" y="960" as="sourcePoint" />
            <mxPoint x="470" y="910" as="targetPoint" />
          </mxGeometry>
        </mxCell>
        <mxCell id="kuRha2_io-UW0Y_83bCq-74" value="" style="endArrow=none;html=1;rounded=0;exitX=0;exitY=0;exitDx=0;exitDy=0;" parent="1" source="kuRha2_io-UW0Y_83bCq-51" target="qDlPhBRoSfTYgMn2V-P4-2" edge="1">
          <mxGeometry width="50" height="50" relative="1" as="geometry">
            <mxPoint x="410" y="870" as="sourcePoint" />
            <mxPoint x="460" y="820" as="targetPoint" />
          </mxGeometry>
        </mxCell>
        <mxCell id="kuRha2_io-UW0Y_83bCq-75" value="" style="endArrow=none;html=1;rounded=0;entryX=1;entryY=1;entryDx=0;entryDy=0;" parent="1" source="qDlPhBRoSfTYgMn2V-P4-46" target="kuRha2_io-UW0Y_83bCq-51" edge="1">
          <mxGeometry width="50" height="50" relative="1" as="geometry">
            <mxPoint x="370" y="710" as="sourcePoint" />
            <mxPoint x="420" y="670" as="targetPoint" />
          </mxGeometry>
        </mxCell>
        <mxCell id="kuRha2_io-UW0Y_83bCq-78" value="title" style="ellipse;whiteSpace=wrap;html=1;" parent="1" vertex="1">
          <mxGeometry x="724.9999999999999" y="460" width="83.33" height="50" as="geometry" />
        </mxCell>
        <mxCell id="kuRha2_io-UW0Y_83bCq-79" value="" style="endArrow=none;html=1;rounded=0;exitX=0.925;exitY=1.033;exitDx=0;exitDy=0;entryX=0;entryY=0;entryDx=0;entryDy=0;exitPerimeter=0;" parent="1" source="qDlPhBRoSfTYgMn2V-P4-23" target="kuRha2_io-UW0Y_83bCq-78" edge="1">
          <mxGeometry width="50" height="50" relative="1" as="geometry">
            <mxPoint x="710" y="470" as="sourcePoint" />
            <mxPoint x="760" y="420" as="targetPoint" />
          </mxGeometry>
        </mxCell>
        <mxCell id="kuRha2_io-UW0Y_83bCq-87" value="" style="endArrow=none;html=1;rounded=0;" parent="1" edge="1">
          <mxGeometry width="50" height="50" relative="1" as="geometry">
            <mxPoint x="470" y="180" as="sourcePoint" />
            <mxPoint x="470" y="150" as="targetPoint" />
          </mxGeometry>
        </mxCell>
        <mxCell id="kuRha2_io-UW0Y_83bCq-88" value="" style="endArrow=none;html=1;rounded=0;" parent="1" edge="1">
          <mxGeometry width="50" height="50" relative="1" as="geometry">
            <mxPoint x="440" y="60" as="sourcePoint" />
            <mxPoint x="440" y="30" as="targetPoint" />
          </mxGeometry>
        </mxCell>
        <mxCell id="kuRha2_io-UW0Y_83bCq-94" value="" style="endArrow=none;html=1;rounded=0;" parent="1" edge="1">
          <mxGeometry width="50" height="50" relative="1" as="geometry">
            <mxPoint x="80" y="270" as="sourcePoint" />
            <mxPoint x="120" y="260" as="targetPoint" />
          </mxGeometry>
        </mxCell>
        <mxCell id="kuRha2_io-UW0Y_83bCq-100" value="" style="endArrow=none;html=1;rounded=0;" parent="1" edge="1">
          <mxGeometry width="50" height="50" relative="1" as="geometry">
            <mxPoint x="425" y="720" as="sourcePoint" />
            <mxPoint x="385" y="720" as="targetPoint" />
            <Array as="points">
              <mxPoint x="410" y="670" />
            </Array>
          </mxGeometry>
        </mxCell>
        <mxCell id="kuRha2_io-UW0Y_83bCq-105" value="" style="endArrow=none;html=1;rounded=0;entryX=0.417;entryY=0;entryDx=0;entryDy=0;entryPerimeter=0;exitX=0.086;exitY=0.011;exitDx=0;exitDy=0;exitPerimeter=0;" parent="1" source="qDlPhBRoSfTYgMn2V-P4-23" target="qDlPhBRoSfTYgMn2V-P4-23" edge="1">
          <mxGeometry width="50" height="50" relative="1" as="geometry">
            <mxPoint x="590" y="380" as="sourcePoint" />
            <mxPoint x="640" y="330" as="targetPoint" />
            <Array as="points">
              <mxPoint x="620" y="330" />
            </Array>
          </mxGeometry>
        </mxCell>
        <mxCell id="kuRha2_io-UW0Y_83bCq-106" value="" style="endArrow=none;html=1;rounded=0;entryX=0.417;entryY=0;entryDx=0;entryDy=0;entryPerimeter=0;exitX=0.086;exitY=0.011;exitDx=0;exitDy=0;exitPerimeter=0;" parent="1" edge="1">
          <mxGeometry width="50" height="50" relative="1" as="geometry">
            <mxPoint x="660" y="350" as="sourcePoint" />
            <mxPoint x="700" y="349" as="targetPoint" />
            <Array as="points">
              <mxPoint x="680" y="329" />
            </Array>
          </mxGeometry>
        </mxCell>
        <mxCell id="kuRha2_io-UW0Y_83bCq-108" value="" style="endArrow=none;html=1;rounded=0;exitX=0.462;exitY=0.015;exitDx=0;exitDy=0;exitPerimeter=0;entryX=0.095;entryY=0;entryDx=0;entryDy=0;entryPerimeter=0;" parent="1" source="qDlPhBRoSfTYgMn2V-P4-46" target="qDlPhBRoSfTYgMn2V-P4-46" edge="1">
          <mxGeometry width="50" height="50" relative="1" as="geometry">
            <mxPoint x="385.84000000000003" y="720" as="sourcePoint" />
            <mxPoint x="345.84000000000003" y="720" as="targetPoint" />
            <Array as="points">
              <mxPoint x="350" y="690" />
            </Array>
          </mxGeometry>
        </mxCell>
        <mxCell id="Vy25yQKs0Dko6nrtGjQA-2" value="username" style="ellipse;whiteSpace=wrap;html=1;" parent="1" vertex="1">
          <mxGeometry x="170" y="260" width="77.5" height="50" as="geometry" />
        </mxCell>
        <mxCell id="D3oBofmpskHSFgTfiEmH-1" value="product_id" style="ellipse;whiteSpace=wrap;html=1;" parent="1" vertex="1">
          <mxGeometry x="336.67" y="1000" width="83.33" height="50" as="geometry" />
        </mxCell>
        <mxCell id="AwhppkJil3_IrcUumvcl-1" value="" style="endArrow=none;html=1;rounded=0;" edge="1" parent="1">
          <mxGeometry width="50" height="50" relative="1" as="geometry">
            <mxPoint x="600" y="320" as="sourcePoint" />
            <mxPoint x="640" y="320" as="targetPoint" />
          </mxGeometry>
        </mxCell>
        <mxCell id="AwhppkJil3_IrcUumvcl-2" value="" style="endArrow=none;html=1;rounded=0;" edge="1" parent="1">
          <mxGeometry width="50" height="50" relative="1" as="geometry">
            <mxPoint x="660" y="320" as="sourcePoint" />
            <mxPoint x="700" y="320" as="targetPoint" />
          </mxGeometry>
        </mxCell>
        <mxCell id="AwhppkJil3_IrcUumvcl-5" value="" style="endArrow=none;html=1;rounded=0;" edge="1" parent="1">
          <mxGeometry width="50" height="50" relative="1" as="geometry">
            <mxPoint x="325" y="690" as="sourcePoint" />
            <mxPoint x="355" y="660" as="targetPoint" />
          </mxGeometry>
        </mxCell>
        <mxCell id="AwhppkJil3_IrcUumvcl-6" value="" style="endArrow=none;html=1;rounded=0;" edge="1" parent="1">
          <mxGeometry width="50" height="50" relative="1" as="geometry">
            <mxPoint x="390" y="660" as="sourcePoint" />
            <mxPoint x="430" y="660" as="targetPoint" />
          </mxGeometry>
        </mxCell>
        <mxCell id="AwhppkJil3_IrcUumvcl-8" value="" style="endArrow=none;html=1;rounded=0;exitX=-0.027;exitY=0.986;exitDx=0;exitDy=0;exitPerimeter=0;" edge="1" parent="1">
          <mxGeometry width="50" height="50" relative="1" as="geometry">
            <mxPoint x="578.37" y="409.99999999999994" as="sourcePoint" />
            <mxPoint x="560" y="370" as="targetPoint" />
          </mxGeometry>
        </mxCell>
      </root>
    </mxGraphModel>
  </diagram>
</mxfile>
